<?xml version="1.0" encoding="iso-8859-1"?>
<!-- Uploaded to: SVG Repo, www.svgrepo.com, Generator: SVG Repo Mixer Tools -->
<svg fill="#000000" height="800px" width="800px" version="1.1" id="Layer_1" xmlns="http://www.w3.org/2000/svg" xmlns:xlink="http://www.w3.org/1999/xlink" 
	 viewBox="0 0 512 512" xml:space="preserve">
<g>
	<g>
		<path d="M400.923,0H111.531c-46.03,0-83.705,36.775-83.705,82.805v345.043c0,46.03,37.675,84.152,83.705,84.152h289.391
			c46.03,0,83.251-38.122,83.251-84.152V82.805C484.174,36.775,446.953,0,400.923,0z M451.01,428.522
			c0,27.618-22.469,50.087-50.087,50.087H111.531c-27.618,0-50.314-23.142-50.314-50.76V82.805
			c0-27.618,22.696-49.414,50.314-49.414h289.391c27.618,0,50.087,22.469,50.087,50.087V428.522z"/>
	</g>
</g>
<g>
	<g>
		<path d="M256.227,66.783c-82.854,0-150.261,67.407-150.261,150.261c0,9.22,7.475,16.696,16.696,16.696c6.542,0,260.254,0,267.13,0
			c9.22,0,16.696-7.475,16.696-16.696C406.488,134.19,339.082,66.783,256.227,66.783z M266.546,200.348l-28.777-57.553
			c-4.124-8.248-14.153-11.591-22.4-7.466c-8.248,4.124-11.59,14.152-7.466,22.4l21.31,42.62h-88.666
			c8.125-56.562,56.905-100.174,115.681-100.174c58.775,0,107.555,43.612,115.681,100.174H266.546z"/>
	</g>
</g>
<g>
	<g>
		<path d="M189.444,267.13h-33.391c-27.618,0-50.087,22.469-50.087,50.087v77.913c0,27.618,22.469,50.087,50.087,50.087h33.391
			c27.618,0,50.087-22.469,50.087-50.087v-77.913C239.531,289.599,217.062,267.13,189.444,267.13z M206.14,395.13
			c0,9.206-7.49,16.696-16.696,16.696h-33.391c-9.206,0-16.696-7.49-16.696-16.696v-77.913c0-9.206,7.49-16.696,16.696-16.696
			h33.391c9.206,0,16.696,7.49,16.696,16.696V395.13z"/>
	</g>
</g>
<g>
	<g>
		<path d="M356.401,267.13H323.01c-27.618,0-50.087,22.469-50.087,50.087v77.913c0,27.618,22.469,50.087,50.087,50.087h33.391
			c27.618,0,50.087-22.469,50.087-50.087v-77.913C406.488,289.599,384.019,267.13,356.401,267.13z M373.097,395.13
			c0,9.206-7.49,16.696-16.696,16.696H323.01c-9.206,0-16.696-7.49-16.696-16.696v-77.913c0-9.206,7.49-16.696,16.696-16.696h33.391
			c9.206,0,16.696,7.49,16.696,16.696V395.13z"/>
	</g>
</g>
</svg>